{"title":"JUST TEENS PORN ANGEL FCUKED-SILVERDUST-{HKRG}","uid":6237106,"size":536482227,"categoryP":"porn","categoryS":"movie_clips","magnet":"?xt=urn:btih:355a473a7da30079679bbb5fc5d51c32898e1e05&amp;dn=JUST+TEENS+PORN+ANGEL+FCUKED-SILVERDUST-%7BHKRG%7D&amp;tr=udp%3A%2F%2Ftracker.openbittorrent.com%3A80&amp;tr=udp%3A%2F%2Fopen.demonii.com%3A1337&amp;tr=udp%3A%2F%2Ftracker.coppersurfer.tk%3A6969&amp;tr=udp%3A%2F%2Fexodus.desync.com%3A6969","seeders":0,"leechers":1,"uploader":"dodgerblue","files":6,"time":1299919831,"description":"JUST TEENS PORN ANGEL FCUKED-SILVERDUST-{HKRG}\nFile size                        : 509 MiB\nDuration                         : 22mn 39s\nOverall bit rate mode            : Variable\nOverall bit rate                 : 3 139 Kbps\nMaximum Overall bit rate         : 6 154 Kbps\nEncoded date                     : UTC 2008-07-12 00:26:14.231\n\nVideo\nID                               : 2\nFormat                           : VC-1\nFormat profile                   : MP@HL\nCodec ID                         : WMV3\nCodec ID/Info                    : Windows Media Video 9\nCodec ID/Hint                    : WMV3\nDescription of the codec         : Windows Media Video 9 - Professional\nDuration                         : 22mn 39s\nBit rate mode                    : Variable\nBit rate                         : 3 000 Kbps\nWidth                            : 1 280 pixels\nHeight                           : 720 pixels\nDisplay aspect ratio             : 1.897\nFrame rate                       : 25.000 fps\nBit depth                        : 8 bits\nScan type                        : Progressive\nCompression mode                 : Lossy\nBits/(Pixel*Frame)               : 0.130\nStream size                      : 486 MiB (96%)\n\nAudio\nID                               : 1\nFormat                           : WMA\nFormat version                   : Version 2\nCodec ID                         : 161\nCodec ID/Info                    : Windows Media Audio\nDescription of the codec         : Windows Media Audio 9.2 - 127 kbps, 48 kHz, stereo Low Delay 2-pass CBR\nDuration                         : 22mn 39s\nBit rate mode                    : Constant\nBit rate                         : 127 Kbps\nChannel(s)                       : 2 channels\nSampling rate                    : 48.0 KHz\nBit depth                        : 16 bits\nStream size                      : 20.6 MiB (4%) &lt;a href=&quot;\nhttp://img3.immage.de/1203image48233390.jpg&quot; rel=&quot;nofollow&quot; target=&quot;_NEW&quot;&gt;\nhttp://img3.immage.de/1203image48233390.jpg&lt;/a&gt;\n\n\n\n[img]http://img3.immage.de/1203image48233390.jpg[/img] &lt;a href=&quot;\nhttp://www.leetleech.org/images/58747623395511418358.jpg&quot; rel=&quot;nofollow&quot; target=&quot;_NEW&quot;&gt;\nhttp://www.leetleech.org/images/58747623395511418358.jpg&lt;/a&gt;\n    &lt;a href=&quot;\thttp://www.leetleech.org/images/76105981895018051028.png&quot; rel=&quot;nofollow&quot; target=&quot;_NEW&quot;&gt;\thttp://www.leetleech.org/images/76105981895018051028.png&lt;/a&gt;\n    &lt;a href=&quot;\thttp://www.leetleech.org/images/84902049181981857623.png&quot; rel=&quot;nofollow&quot; target=&quot;_NEW&quot;&gt;\thttp://www.leetleech.org/images/84902049181981857623.png&lt;/a&gt;\n    &lt;a href=&quot;\thttp://www.leetleech.org/images/91275190877673904290.png&quot; rel=&quot;nofollow&quot; target=&quot;_NEW&quot;&gt;\thttp://www.leetleech.org/images/91275190877673904290.png&lt;/a&gt;\n\nNJOI","torrent":{"xt":"urn:btih:355a473a7da30079679bbb5fc5d51c32898e1e05","amp;dn":"JUST+TEENS+PORN+ANGEL+FCUKED-SILVERDUST-%7BHKRG%7D","amp;tr":["udp%3A%2F%2Ftracker.openbittorrent.com%3A80","udp%3A%2F%2Fopen.demonii.com%3A1337","udp%3A%2F%2Ftracker.coppersurfer.tk%3A6969","udp%3A%2F%2Fexodus.desync.com%3A6969"],"infoHash":"355a473a7da30079679bbb5fc5d51c32898e1e05","infoHashBuffer":{"type":"Buffer","data":[53,90,71,58,125,163,0,121,103,155,187,95,197,213,28,50,137,142,30,5]},"announce":[],"urlList":[]}}